<?xml version="1.0" standalone="no"?>
<!DOCTYPE svg PUBLIC "-//W3C//DTD SVG 20010904//EN"
 "http://www.w3.org/TR/2001/REC-SVG-20010904/DTD/svg10.dtd">
<svg version="1.0" xmlns="http://www.w3.org/2000/svg"
 width="262.000000pt" height="192.000000pt" viewBox="0 0 262.000000 192.000000"
 preserveAspectRatio="xMidYMid meet">

<g transform="translate(0.000000,192.000000) scale(0.100000,-0.100000)"
fill="#000000" stroke="none">
<path d="M1245 1894 c-102 -13 -180 -30 -255 -56 -477 -167 -735 -686 -578
-1163 80 -245 266 -453 497 -557 450 -205 982 -40 1222 379 113 198 152 417
110 629 -31 161 -78 266 -177 399 -133 178 -331 302 -559 349 -76 15 -213 26
-260 20z m230 -136 c184 -30 380 -155 502 -318 228 -304 207 -737 -50 -1016
-110 -119 -234 -197 -387 -245 -101 -32 -339 -34 -440 -5 -283 81 -501 293
-586 571 -27 86 -27 344 0 430 72 231 222 411 429 513 167 82 331 104 532 70z"/>
<path d="M1363 1570 c-86 -52 -81 -170 10 -213 44 -21 80 -21 123 -1 50 24 74
59 74 109 0 98 -119 159 -207 105z"/>
<path d="M1285 1179 c-154 -24 -162 -26 -169 -44 -4 -11 2 -15 28 -15 46 0 70
-29 63 -74 -3 -19 -38 -135 -78 -258 -96 -298 -99 -334 -26 -378 60 -37 160
-18 244 46 35 26 123 136 123 153 0 28 -25 15 -84 -45 -56 -57 -67 -65 -81
-54 -21 17 -19 33 14 136 16 49 43 136 61 194 28 92 68 219 100 316 5 17 10
33 10 37 0 11 -76 6 -205 -14z"/>
</g>
</svg>
