<?xml version="1.0" standalone="no"?>
<!DOCTYPE svg PUBLIC "-//W3C//DTD SVG 20010904//EN"
 "http://www.w3.org/TR/2001/REC-SVG-20010904/DTD/svg10.dtd">
<svg version="1.0" xmlns="http://www.w3.org/2000/svg"
 width="1058.000000pt" height="288.000000pt" viewBox="0 0 1058.000000 288.000000"
 preserveAspectRatio="xMidYMid meet">

<g transform="translate(0.000000,288.000000) scale(0.100000,-0.100000)"
fill="#000000" stroke="none">
<path d="M147 2784 c-4 -4 -7 -56 -7 -116 l0 -108 25 0 c23 0 25 4 25 45 l0
45 5154 0 5155 0 3 -42 c2 -36 7 -44 26 -46 22 -3 22 -2 22 108 0 92 -3 112
-16 117 -21 8 -34 -13 -34 -54 l0 -33 -5154 0 -5155 0 -3 42 c-3 41 -22 60
-41 42z"/>
<path d="M132 2190 c-27 -25 -28 -52 -4 -72 23 -20 113 -68 182 -97 107 -45
125 -53 142 -62 10 -5 27 -9 37 -9 11 0 23 -4 26 -10 3 -5 15 -10 26 -10 10 0
27 -4 37 -10 36 -20 236 -76 417 -116 157 -35 275 -55 426 -73 47 -6 92 -13
100 -15 8 -3 102 -13 209 -22 145 -13 298 -17 600 -17 428 0 642 13 1175 73
401 45 1234 83 1825 84 601 0 1371 -35 1825 -83 657 -70 946 -86 1368 -77 328
8 682 36 942 75 33 5 89 14 125 19 58 9 255 50 353 73 20 5 54 13 75 18 56 14
273 82 317 100 11 5 52 21 90 37 98 39 125 59 125 94 0 50 -53 64 -118 31 -50
-25 -218 -88 -289 -107 -32 -9 -71 -19 -88 -24 -121 -34 -240 -61 -360 -84
-255 -49 -230 -45 -480 -76 -233 -29 -489 -42 -845 -43 -348 0 -443 4 -790 34
-108 10 -160 15 -400 39 -446 45 -790 65 -1398 81 -740 19 -1660 -13 -2297
-80 -186 -20 -307 -32 -550 -52 -430 -37 -1057 -27 -1415 22 -41 5 -109 14
-150 20 -133 18 -285 48 -470 95 -36 8 -81 19 -100 24 -50 12 -131 37 -245 76
-126 44 -117 41 -258 108 -65 31 -124 56 -131 56 -7 0 -22 -9 -34 -20z m137
-48 c123 -61 256 -114 396 -158 24 -7 31 -16 33 -42 2 -17 -1 -32 -6 -32 -12
0 -140 38 -167 49 -11 5 -36 14 -55 21 -112 38 -295 125 -322 152 -19 19 -19
21 -2 39 9 10 19 19 22 19 2 0 47 -21 101 -48z m10249 -34 c7 -7 12 -18 12
-25 0 -11 -84 -57 -160 -86 -14 -5 -33 -13 -42 -18 -10 -5 -26 -9 -36 -9 -10
0 -22 -4 -27 -8 -17 -14 -85 -33 -95 -27 -5 3 -10 17 -10 29 0 26 22 39 130
76 68 23 145 54 170 70 21 13 44 12 58 -2z m-388 -151 c0 -31 -18 -47 -51 -47
-15 0 -31 -4 -34 -10 -3 -5 -21 -10 -39 -10 -17 0 -37 -5 -44 -12 -6 -6 -28
-13 -48 -15 -20 -2 -45 -8 -55 -13 -10 -6 -33 -10 -51 -10 -19 0 -38 -4 -43
-9 -6 -5 -32 -12 -60 -15 -27 -3 -77 -9 -110 -15 -33 -5 -96 -14 -140 -20 -44
-6 -90 -16 -102 -23 -12 -6 -28 -8 -36 -5 -8 3 -43 1 -78 -5 -100 -15 -286
-28 -496 -34 -186 -5 -193 -5 -193 14 0 28 27 33 250 43 233 10 486 33 650 58
36 6 96 15 134 20 37 6 73 15 80 20 6 5 31 11 56 15 109 14 136 19 145 27 5 5
26 9 46 9 21 0 41 5 44 10 3 6 18 10 33 10 15 0 38 7 50 16 12 8 25 13 30 11
4 -3 16 -1 27 4 31 12 35 11 35 -14z m-9298 -28 c9 -5 30 -9 47 -9 16 0 33 -4
36 -10 3 -5 24 -10 45 -10 21 0 42 -4 45 -10 3 -5 22 -10 41 -10 20 0 44 -5
56 -11 56 -30 476 -82 798 -99 402 -21 400 -21 400 -40 0 -10 -6 -19 -12 -21
-20 -6 -492 9 -618 20 -63 5 -141 14 -172 19 -32 6 -67 8 -78 5 -11 -3 -26 -1
-33 5 -7 6 -47 16 -88 22 -40 6 -101 15 -134 21 -33 5 -80 12 -105 15 -25 3
-49 10 -55 15 -5 5 -25 9 -45 9 -20 0 -40 4 -46 10 -5 5 -23 11 -39 12 -17 1
-39 8 -50 15 -11 7 -32 13 -47 13 -27 0 -62 35 -52 52 6 9 80 0 106 -13z
m4191 -16 c-13 -2 -35 -2 -50 0 -16 2 -5 4 22 4 28 0 40 -2 28 -4z m652 -3
c-27 -4 -54 -3 -59 1 -6 5 15 8 50 8 l59 -2 -50 -7z m-1738 -46 c-3 -3 -12 -4
-19 -1 -8 3 -5 6 6 6 11 1 17 -2 13 -5z m178 -34 c3 -5 1 -10 -4 -10 -6 0 -11
5 -11 10 0 6 2 10 4 10 3 0 8 -4 11 -10z m-885 -30 c0 -5 -2 -10 -4 -10 -3 0
-8 5 -11 10 -3 6 -1 10 4 10 6 0 11 -4 11 -10z m-597 -47 c-7 -2 -19 -2 -25 0
-7 3 -2 5 12 5 14 0 19 -2 13 -5z"/>
<path d="M2300 1395 c0 -115 0 -116 23 -113 18 2 23 10 25 46 l3 42 3050 0
3049 0 0 -29 c0 -42 9 -61 30 -61 25 0 30 20 30 108 0 95 -7 122 -30 122 -21
0 -30 -19 -30 -61 l0 -29 -3049 0 -3050 0 -3 43 c-2 35 -7 43 -25 45 -23 3
-23 2 -23 -113z"/>
<path d="M370 785 c-82 -19 -114 -31 -168 -67 -78 -53 -105 -88 -136 -179 -19
-52 -21 -196 -5 -236 31 -76 43 -97 72 -130 67 -76 165 -115 337 -133 123 -13
535 -9 970 10 1199 52 1760 68 2878 80 703 8 1222 8 1920 0 1124 -13 1702 -29
2877 -80 618 -28 998 -23 1115 12 112 34 198 101 239 188 23 50 26 66 26 170
-1 101 -4 121 -25 165 -50 103 -150 170 -298 200 -71 15 -139 16 -519 12 -241
-2 -595 -12 -788 -21 -1036 -48 -1166 -51 -2275 -67 -1166 -17 -1465 -17
-2630 0 -1106 16 -1281 21 -2270 67 -491 23 -1234 28 -1320 9z m274 -21 c3 -9
6 -165 6 -348 0 -250 -3 -336 -12 -348 -12 -15 -28 -15 -142 -7 -177 13 -258
41 -331 114 -114 116 -128 322 -30 451 32 42 113 103 137 104 9 0 19 4 22 9 4
5 39 15 79 21 39 6 79 13 87 15 8 1 52 3 96 4 66 1 83 -2 88 -15z m951 -13
c143 -6 337 -14 430 -19 94 -6 182 -10 198 -11 l27 -1 0 -299 0 -298 -87 -12
c-49 -6 -196 -13 -328 -15 -132 -2 -251 -8 -265 -14 -14 -5 -131 -10 -261 -10
-130 -1 -256 -6 -280 -11 -64 -15 -332 -14 -347 1 -9 9 -12 103 -12 360 l0
349 333 -6 c182 -2 449 -9 592 -14z m8475 -330 l0 -349 -52 -7 c-104 -13 -452
-17 -491 -5 -22 6 -134 11 -280 12 -133 0 -253 5 -266 10 -13 5 -123 11 -245
14 -153 4 -224 9 -231 17 -6 8 -9 123 -7 314 l3 302 92 5 c51 3 214 9 364 14
149 4 275 10 279 15 4 4 193 7 421 7 l413 0 0 -349z m120 339 c88 -20 136 -46
201 -110 48 -47 58 -65 74 -122 37 -137 1 -287 -87 -362 -62 -54 -164 -96
-231 -96 l-37 0 0 343 c0 189 3 347 7 350 8 9 19 9 73 -3z"/>
</g>
</svg>
