<svg xmlns="http://www.w3.org/2000/svg" 
width="500" height="190" viewBox="0 0 500 190">

    <!-- backround color -->
    <path d="M -0 95.002 L -0 190.004 250.250 189.752 L 500.500 189.500 500.755 94.750 L 501.010 0 250.505 0 L 0 0 -0 95.002 M 0.480 95.500 C 0.480 147.750, 0.601 169.272, 0.750 143.326 C 0.898 117.380, 0.898 74.630, 0.750 48.326 C 0.601 22.022, 0.480 43.250, 0.480 95.500 M 226.315 11.074 C 223.245 12.217, 221.790 15.317, 222.923 18.298 C 224.364 22.087, 229.636 23.349, 232.020 20.476 C 233.641 18.522, 232.515 17.328, 230.572 18.940 C 228.120 20.975, 224.832 19.278, 225.192 16.164 C 225.468 13.777, 225.894 13.512, 229.289 13.618 C 231.472 13.685, 232.934 13.302, 232.738 12.713 C 232.194 11.082, 228.693 10.188, 226.315 11.074 M 235.450 16.099 C 232.919 21.093, 232.914 24.206, 235.442 20.748 C 237.008 18.606, 240.577 18.456, 241.362 20.500 C 241.678 21.325, 242.851 22, 243.969 22 C 245.581 22, 246.013 21.329, 246.064 18.750 L 246.128 15.500 247.745 18.750 C 249.609 22.494, 250.603 22.825, 251.500 20 C 251.849 18.900, 252.554 18, 253.067 18 C 253.580 18, 254 18.900, 254 20 C 254 21.100, 254.450 22, 255 22 C 256.146 22, 256.240 20.087, 255.358 14.750 C 254.609 10.218, 253.655 10.005, 252 14 C 251.317 15.650, 250.417 17, 250 17 C 249.583 17, 248.683 15.650, 248 14 C 246.253 9.781, 245.234 10.260, 244.421 15.680 L 243.719 20.361 241.340 15.680 C 240.032 13.106, 238.753 11, 238.498 11 C 238.242 11, 236.871 13.295, 235.450 16.099 M 257 16.434 C 257 21.628, 257.159 22, 259.378 22 C 262.386 22, 264.466 19.591, 263.468 17.263 C 263.053 16.293, 262.665 14.600, 262.606 13.500 C 262.532 12.095, 261.682 11.406, 259.750 11.184 C 257.041 10.872, 257 10.951, 257 16.434 M 265 16.500 C 265 21.944, 265.030 22, 268 22 C 269.650 22, 271 21.550, 271 21 C 271 20.450, 270.100 20, 269 20 C 267.889 20, 267 19.333, 267 18.500 C 267 17.667, 267.889 17, 269 17 C 270.100 17, 271 16.550, 271 16 C 271 15.450, 270.100 15, 269 15 C 267.900 15, 267 14.550, 267 14 C 267 13.450, 267.900 13, 269 13 C 270.100 13, 271 12.550, 271 12 C 271 11.450, 269.650 11, 268 11 C 265.030 11, 265 11.056, 265 16.500 M 272 16.500 C 272 19.525, 272.450 22, 273 22 C 273.550 22, 274.010 20.988, 274.022 19.750 L 274.044 17.500 275.954 19.985 C 278.037 22.696, 279.789 22.232, 278.199 19.390 C 277.542 18.218, 277.564 17.069, 278.265 15.948 C 279.930 13.281, 278.440 11, 275.031 11 C 272.024 11, 272 11.043, 272 16.500 M 274 14 C 274 14.550, 274.675 15, 275.500 15 C 276.325 15, 277 14.550, 277 14 C 277 13.450, 276.325 13, 275.500 13 C 274.675 13, 274 13.450, 274 14 M 259 18.500 C 259 19.417, 259.484 20.005, 260.075 19.808 C 260.666 19.611, 261.150 19.023, 261.150 18.500 C 261.150 17.977, 260.666 17.389, 260.075 17.192 C 259.484 16.995, 259 17.583, 259 18.500 M 250 34.059 C 250 41.177, 249.644 44.898, 249 44.500 C 247.418 43.522, 247.838 45.620, 249.500 47 C 250.697 47.993, 251.303 47.993, 252.500 47 C 254.162 45.620, 254.582 43.522, 253 44.500 C 252.356 44.898, 252 41.177, 252 34.059 C 252 27.353, 251.606 23, 251 23 C 250.394 23, 250 27.353, 250 34.059 M 13.667 57.667 C 13.300 58.033, 13 59.151, 13 60.150 C 13 65.426, 46.266 75.990, 76 80.157 C 91.991 82.398, 138.363 81.911, 163 79.244 C 216.424 73.461, 282.586 73.452, 337 79.222 C 361.678 81.839, 409.614 82.357, 427 80.194 C 449.243 77.427, 479.548 69.831, 485.750 65.469 C 491.163 61.662, 486.626 58.145, 480.081 61.075 C 468.575 66.226, 444.678 71.696, 423 74.140 C 404.775 76.195, 365.257 75.740, 341.500 73.201 C 309.473 69.779, 289.949 68.856, 250 68.876 C 210.755 68.895, 192.688 69.723, 159.580 73.023 C 148.624 74.114, 132.649 75.292, 124.080 75.640 C 88.818 77.070, 47.406 70.717, 25.241 60.476 C 17.825 57.049, 14.976 56.358, 13.667 57.667 M 15.966 60.459 C 17.129 61.860, 36.715 70, 38.925 70 C 41.818 70, 39.400 68.176, 34.430 66.610 C 31.367 65.644, 25.925 63.537, 22.337 61.927 C 14.883 58.582, 14.296 58.447, 15.966 60.459 M 477 64.740 C 469.782 67.575, 469.436 67.769, 470.206 68.539 C 470.845 69.178, 484.071 64.329, 485.449 62.951 C 487.043 61.357, 483.941 62.014, 477 64.740 M 21 84 C 21 84.550, 21.675 85, 22.500 85 C 23.325 85, 24 84.550, 24 84 C 24 83.450, 23.325 83, 22.500 83 C 21.675 83, 21 83.450, 21 84 M 103 84 C 103 84.550, 103.675 85, 104.500 85 C 105.325 85, 106 84.550, 106 84 C 106 83.450, 105.325 83, 104.500 83 C 103.675 83, 103 83.450, 103 84 M 194 84 C 194 84.550, 194.675 85, 195.500 85 C 196.325 85, 197 84.550, 197 84 C 197 83.450, 196.325 83, 195.500 83 C 194.675 83, 194 83.450, 194 84 M 276 84 C 276 84.550, 276.675 85, 277.500 85 C 278.325 85, 279 84.550, 279 84 C 279 83.450, 278.325 83, 277.500 83 C 276.675 83, 276 83.450, 276 84 M 367 84 C 367 84.550, 367.675 85, 368.500 85 C 369.325 85, 370 84.550, 370 84 C 370 83.450, 369.325 83, 368.500 83 C 367.675 83, 367 83.450, 367 84 M 449 84 C 449 84.550, 449.675 85, 450.500 85 C 451.325 85, 452 84.550, 452 84 C 452 83.450, 451.325 83, 450.500 83 C 449.675 83, 449 83.450, 449 84 M 25.539 94.466 C 8.021 99.168, 7.975 123.093, 25.475 127.993 C 31.002 129.541, 69.600 128.985, 128.500 126.510 C 179.782 124.355, 320.270 124.356, 371.500 126.512 C 426.899 128.844, 469.620 129.494, 474.763 128.084 C 483.649 125.649, 488.667 118.294, 487.775 109.011 C 487.182 102.834, 483.876 98.284, 478.092 95.682 C 471.588 92.756, 456.441 92.470, 412 94.437 C 318.041 98.595, 195.456 98.803, 102.500 94.963 C 48.046 92.713, 32.448 92.612, 25.539 94.466 M 23.500 97.881 C 17.448 100.660, 15.685 103.209, 15.203 109.877 C 14.428 120.588, 20.029 125.835, 33.250 126.784 L 40 127.269 40 111.634 L 40 96 33.750 96.022 C 29.845 96.036, 25.999 96.733, 23.500 97.881 M 470 111.452 L 470 126.904 474.685 125.494 C 480.617 123.709, 483.887 120.449, 485.083 115.127 C 486.785 107.551, 484.015 101.154, 477.712 98.102 C 469.821 94.283, 470 93.972, 470 111.452 M 75.750 141.437 C 73.608 143.008, 73.447 144.426, 75.500 143.638 C 76.777 143.148, 77 144.692, 77 154.031 C 77 160.677, 77.394 165, 78 165 C 78.603 165, 79 160.861, 79 154.583 C 79 148.033, 79.400 144.033, 80.077 143.808 C 80.698 143.601, 80.381 142.752, 79.327 141.801 C 77.809 140.431, 77.204 140.370, 75.750 141.437 M 432.872 141.663 C 431.802 142.959, 431.775 143.418, 432.750 143.746 C 433.643 144.047, 434 147.141, 434 154.583 C 434 160.861, 434.397 165, 435 165 C 435.603 165, 436 160.861, 436 154.583 C 436 147.141, 436.357 144.047, 437.250 143.746 C 438.225 143.418, 438.198 142.959, 437.128 141.663 C 436.373 140.748, 435.415 140, 435 140 C 434.585 140, 433.627 140.748, 432.872 141.663 M 50.667 168.667 C 50.300 169.033, 50 171.508, 50 174.167 C 50 177.951, 50.351 179, 51.617 179 C 52.788 179, 53.083 178.381, 52.687 176.750 L 52.141 174.500 53.693 176.750 C 54.546 177.988, 55.874 179, 56.645 179 C 57.802 179, 57.775 178.586, 56.487 176.621 C 55.119 174.533, 55.110 174.172, 56.413 173.672 C 57.334 173.318, 58.135 173.852, 58.525 175.078 C 58.870 176.164, 60.212 177.748, 61.509 178.598 C 63.444 179.866, 64.280 179.921, 66.183 178.908 C 67.457 178.229, 69.048 176.959, 69.718 176.087 C 70.496 175.073, 70.948 174.943, 70.968 175.727 C 71.030 178.125, 75.508 180.137, 78.365 179.051 C 82.143 177.615, 81.628 176.024, 77.597 176.678 C 74.856 177.123, 73.981 176.832, 73.099 175.185 C 71.232 171.696, 75.965 168.365, 78.783 171.183 C 80.452 172.852, 81.554 171.372, 80.020 169.524 C 78.253 167.395, 74.375 167.625, 72 170 L 70 172 68 170 C 65.501 167.501, 62.555 167.445, 60.148 169.852 C 58.346 171.654, 58.265 171.654, 57.140 169.852 C 56.016 168.053, 52.013 167.320, 50.667 168.667 M 82 173.500 C 82 176.525, 82.450 179, 83 179 C 83.550 179, 84 178.255, 84 177.345 C 84 175.858, 84.204 175.875, 86.006 177.506 C 88.806 180.040, 89.816 178.498, 87.188 175.701 L 85.036 173.409 87.212 171.232 C 89.889 168.555, 88.792 166.973, 86.006 169.494 C 84.204 171.125, 84 171.142, 84 169.655 C 84 168.745, 83.550 168, 83 168 C 82.450 168, 82 170.475, 82 173.500 M 90 173.496 L 90 179 95.117 179 C 99.918 179, 100.200 178.861, 99.687 176.750 L 99.141 174.500 100.693 176.750 C 101.546 177.988, 102.934 179, 103.777 179 C 105.058 179, 105.010 178.669, 103.486 176.984 C 101.718 175.031, 101.721 174.924, 103.581 173.543 C 105.114 172.404, 105.277 171.753, 104.394 170.309 C 103.536 168.905, 101.799 168.443, 96.644 168.246 L 90 167.992 90 173.496 M 408 173.500 C 408 176.525, 408.450 179, 409 179 C 409.550 179, 410 178.255, 410 177.345 C 410 175.858, 410.204 175.875, 412.006 177.506 C 414.398 179.670, 415.882 178.771, 413.893 176.362 C 412.811 175.052, 412.779 174.581, 413.750 174.254 C 415.547 173.649, 415.293 169.326, 413.418 168.607 C 408.954 166.894, 408 167.755, 408 173.500 M 417.655 169.829 C 415.121 172.628, 415.560 176.666, 418.615 178.667 C 420.958 180.202, 421.505 180.227, 423.865 178.909 C 425.540 177.973, 426.618 176.414, 426.825 174.630 C 427.461 169.134, 421.234 165.873, 417.655 169.829 M 429.655 169.829 C 425.518 174.400, 430.088 181.648, 435.541 179.163 C 439.136 177.525, 438.546 176.255, 434.250 176.386 C 431.165 176.480, 430.447 176.130, 430.202 174.412 C 429.752 171.265, 432.471 169.438, 435.530 170.832 C 437.503 171.731, 438 171.681, 438 170.586 C 438 167.656, 432.105 167.121, 429.655 169.829 M 439.683 168.650 C 439.308 169.026, 439 171.508, 439 174.167 C 439 177.796, 439.374 179, 440.500 179 C 441.325 179, 442 178.495, 442 177.878 C 442 177.122, 442.409 177.076, 443.250 177.738 C 444.926 179.057, 454 179.284, 454 178.008 C 454 177.454, 453.100 177, 452 177 C 450.900 177, 450 176.550, 450 176 C 450 175.450, 450.900 175, 452 175 C 454.744 175, 454.535 172.242, 451.750 171.706 L 449.500 171.272 451.750 171.136 C 453.051 171.057, 454 170.350, 454 169.459 C 454 168.282, 452.998 167.967, 449.750 168.121 C 447.413 168.232, 444.781 168.679, 443.903 169.115 C 443.025 169.550, 441.870 169.470, 441.337 168.937 C 440.803 168.403, 440.059 168.274, 439.683 168.650 M 455 173.500 C 455 176.525, 455.450 179, 456 179 C 456.550 179, 457 178.255, 457 177.345 C 457 175.858, 457.204 175.875, 459.006 177.506 C 461.398 179.670, 462.882 178.771, 460.893 176.362 C 459.811 175.052, 459.779 174.581, 460.750 174.254 C 462.547 173.649, 462.293 169.326, 460.418 168.607 C 455.954 166.894, 455 167.755, 455 173.500 M 53 171.469 C 53 172.361, 53.587 172.712, 54.494 172.364 C 55.316 172.048, 55.740 171.388, 55.435 170.895 C 54.563 169.483, 53 169.851, 53 171.469 M 61.573 171.569 C 59.450 173.693, 61.212 177, 64.468 177 C 67.289 177, 68.791 173.658, 66.960 171.452 C 65.398 169.570, 63.532 169.610, 61.573 171.569 M 92 171 C 92 171.550, 93.125 172, 94.500 172 C 95.875 172, 97 171.550, 97 171 C 97 170.450, 95.875 170, 94.500 170 C 93.125 170, 92 170.450, 92 171 M 99.694 170.639 C 98.629 171.704, 99.964 172.951, 101.526 172.352 C 102.331 172.043, 102.740 171.388, 102.435 170.895 C 101.787 169.846, 100.598 169.735, 99.694 170.639 M 419.040 171.452 C 416.958 173.961, 418.195 176.500, 421.500 176.500 C 423.566 176.500, 424.578 175.952, 424.819 174.702 C 425.216 172.640, 423.352 170, 421.500 170 C 420.810 170, 419.703 170.653, 419.040 171.452 M 443.656 171.827 C 442.107 173.539, 442.160 173.802, 444.501 176.001 L 447 178.349 447 174.174 C 447 169.608, 446.184 169.035, 443.656 171.827 M 92 175.500 C 92 176.433, 92.944 177, 94.500 177 C 96.056 177, 97 176.433, 97 175.500 C 97 174.567, 96.056 174, 94.500 174 C 92.944 174, 92 174.567, 92 175.500"
stroke="none" fill="#ffffff" fill-rule="evenodd"
/> <!-- backround color -->

    <!-- fill the middle (only of the bottom ski)-->
    <path d="M 266.667 12.667 C 266.300 13.033, 266.007 13.821, 266.015 14.417 C 266.026 15.150, 266.268 15.133, 266.765 14.366 C 267.169 13.742, 268.400 13.007, 269.500 12.732 C 271.435 12.248, 271.432 12.228, 269.417 12.116 C 268.271 12.052, 267.033 12.300, 266.667 12.667 M 266.345 17.543 C 266.019 18.392, 266.034 19.367, 266.376 19.710 C 266.719 20.053, 267 19.615, 267 18.736 C 267 17.858, 268.012 16.944, 269.250 16.706 L 271.500 16.272 269.219 16.136 C 267.964 16.061, 266.671 16.694, 266.345 17.543 M 266.250 21.689 C 267.212 21.941, 268.788 21.941, 269.750 21.689 C 270.712 21.438, 269.925 21.232, 268 21.232 C 266.075 21.232, 265.288 21.438, 266.250 21.689 M 249.985 35.250 C 249.974 42.883, 249.658 46.018, 249 45 C 248.467 44.175, 248.024 43.987, 248.015 44.583 C 247.992 46.222, 249.034 46.924, 250.598 46.324 C 251.682 45.908, 252 43.316, 252 34.893 C 252 28.298, 251.605 24, 251 24 C 250.394 24, 249.994 28.427, 249.985 35.250 M 210.250 69.716 C 211.762 69.945, 214.238 69.945, 215.750 69.716 C 217.262 69.487, 216.025 69.300, 213 69.300 C 209.975 69.300, 208.738 69.487, 210.250 69.716 M 284.768 69.725 C 286.565 69.947, 289.265 69.943, 290.768 69.715 C 292.271 69.486, 290.800 69.304, 287.500 69.310 C 284.200 69.315, 282.971 69.502, 284.768 69.725 M 190.250 70.689 C 191.213 70.941, 192.787 70.941, 193.750 70.689 C 194.713 70.438, 193.925 70.232, 192 70.232 C 190.075 70.232, 189.287 70.438, 190.250 70.689 M 246.750 70.723 C 248.537 70.945, 251.463 70.945, 253.250 70.723 C 255.037 70.502, 253.575 70.320, 250 70.320 C 246.425 70.320, 244.963 70.502, 246.750 70.723 M 306.250 70.689 C 307.212 70.941, 308.788 70.941, 309.750 70.689 C 310.712 70.438, 309.925 70.232, 308 70.232 C 306.075 70.232, 305.288 70.438, 306.250 70.689 M 214.500 72.133 C 227.416 72.950, 272.584 72.950, 285.500 72.133 C 291 71.785, 275.025 71.500, 250 71.500 C 224.975 71.500, 209 71.785, 214.500 72.133 M 190.250 72.716 C 191.762 72.945, 194.238 72.945, 195.750 72.716 C 197.262 72.487, 196.025 72.300, 193 72.300 C 189.975 72.300, 188.738 72.487, 190.250 72.716 M 304.768 72.725 C 306.565 72.947, 309.265 72.943, 310.768 72.715 C 312.271 72.486, 310.800 72.304, 307.500 72.310 C 304.200 72.315, 302.971 72.502, 304.768 72.725 M 179.500 74.046 C 182.250 74.474, 186.525 74.801, 189 74.772 L 193.500 74.718 188 73.958 C 184.975 73.540, 180.700 73.213, 178.500 73.233 C 174.637 73.266, 174.671 73.294, 179.500 74.046 M 202.776 73.733 C 205.128 73.945, 208.728 73.942, 210.776 73.727 C 212.824 73.512, 210.900 73.339, 206.500 73.343 C 202.100 73.346, 200.424 73.522, 202.776 73.733 M 290.250 73.728 C 292.313 73.944, 295.688 73.944, 297.750 73.728 C 299.813 73.513, 298.125 73.336, 294 73.336 C 289.875 73.336, 288.188 73.513, 290.250 73.728 M 312 74 L 306.500 74.674 311.500 74.749 C 314.250 74.791, 318.750 74.474, 321.500 74.046 L 326.500 73.267 322 73.297 C 319.525 73.313, 315.025 73.629, 312 74 M 168.500 75.004 C 172.543 75.894, 179.685 76.318, 178.917 75.623 C 178.688 75.416, 175.350 74.994, 171.500 74.685 C 166.120 74.254, 165.426 74.328, 168.500 75.004 M 241.302 74.746 C 246.693 74.926, 255.243 74.925, 260.302 74.744 C 265.361 74.563, 260.950 74.416, 250.500 74.417 C 240.050 74.418, 235.911 74.566, 241.302 74.746 M 325 75 L 320.500 75.700 324.500 75.792 C 326.700 75.843, 330.300 75.512, 332.500 75.057 L 336.500 74.230 333 74.265 C 331.075 74.285, 327.475 74.615, 325 75 M 132.250 75.689 C 133.213 75.941, 134.787 75.941, 135.750 75.689 C 136.713 75.438, 135.925 75.232, 134 75.232 C 132.075 75.232, 131.287 75.438, 132.250 75.689 M 159 76.051 C 165.035 77.125, 169.765 77.032, 164.500 75.943 C 162.300 75.488, 159.150 75.146, 157.500 75.183 C 155.250 75.233, 155.626 75.451, 159 76.051 M 204.264 75.718 C 205.784 75.947, 208.034 75.941, 209.264 75.704 C 210.494 75.467, 209.250 75.279, 206.500 75.286 C 203.750 75.294, 202.744 75.488, 204.264 75.718 M 291.750 75.706 C 292.988 75.944, 295.012 75.944, 296.250 75.706 C 297.488 75.467, 296.475 75.272, 294 75.272 C 291.525 75.272, 290.512 75.467, 291.750 75.706 M 340.250 75.689 C 341.212 75.941, 342.788 75.941, 343.750 75.689 C 344.712 75.438, 343.925 75.232, 342 75.232 C 340.075 75.232, 339.288 75.438, 340.250 75.689 M 364.250 75.689 C 365.212 75.941, 366.788 75.941, 367.750 75.689 C 368.712 75.438, 367.925 75.232, 366 75.232 C 364.075 75.232, 363.288 75.438, 364.250 75.689 M 407.250 75.689 C 408.212 75.941, 409.788 75.941, 410.750 75.689 C 411.712 75.438, 410.925 75.232, 409 75.232 C 407.075 75.232, 406.288 75.438, 407.250 75.689 M 148.500 77.046 C 155.369 78.116, 161.079 78.031, 155 76.949 C 152.525 76.509, 148.925 76.175, 147 76.208 C 144.138 76.256, 144.411 76.409, 148.500 77.046 M 310.250 76.689 C 311.212 76.941, 312.788 76.941, 313.750 76.689 C 314.712 76.438, 313.925 76.232, 312 76.232 C 310.075 76.232, 309.288 76.438, 310.250 76.689 M 333.250 76.689 C 334.212 76.941, 335.788 76.941, 336.750 76.689 C 337.712 76.438, 336.925 76.232, 335 76.232 C 333.075 76.232, 332.288 76.438, 333.250 76.689 M 345 77 C 341.586 77.719, 341.573 77.738, 344.500 77.794 C 346.150 77.826, 349.525 77.491, 352 77.051 L 356.500 76.250 352.500 76.257 C 350.300 76.260, 346.925 76.595, 345 77 M 129.083 77.381 C 129.313 77.590, 134 78.002, 139.500 78.295 C 146.728 78.682, 147.975 78.604, 144 78.014 C 138.194 77.152, 128.377 76.736, 129.083 77.381 M 356.500 78 C 351.769 78.649, 351.716 78.688, 355.500 78.734 C 357.700 78.761, 362.200 78.448, 365.500 78.038 L 371.500 77.294 366.500 77.304 C 363.750 77.310, 359.250 77.623, 356.500 78 M 119.500 79.054 C 123.446 79.874, 135.726 80.340, 134.917 79.639 C 134.688 79.441, 130.225 79.041, 125 78.751 C 118.692 78.401, 116.844 78.503, 119.500 79.054 M 372 79 L 364.500 79.640 370.500 79.721 C 373.800 79.765, 380.325 79.466, 385 79.056 L 393.500 78.310 386.500 78.335 C 382.650 78.349, 376.125 78.648, 372 79 M 95.762 81.707 C 97.006 81.946, 98.806 81.937, 99.762 81.687 C 100.718 81.437, 99.700 81.241, 97.500 81.252 C 95.300 81.263, 94.518 81.468, 95.762 81.707 M 128.762 81.707 C 130.006 81.946, 131.806 81.937, 132.762 81.687 C 133.718 81.437, 132.700 81.241, 130.500 81.252 C 128.300 81.263, 127.518 81.468, 128.762 81.707 M 368.762 81.707 C 370.006 81.946, 371.806 81.937, 372.762 81.687 C 373.718 81.437, 372.700 81.241, 370.500 81.252 C 368.300 81.263, 367.518 81.468, 368.762 81.707 M 401.750 81.706 C 402.988 81.944, 405.012 81.944, 406.250 81.706 C 407.488 81.467, 406.475 81.272, 404 81.272 C 401.525 81.272, 400.512 81.467, 401.750 81.706 M 39.797 93.745 C 44.361 93.930, 51.561 93.929, 55.797 93.742 C 60.034 93.555, 56.300 93.404, 47.500 93.405 C 38.700 93.406, 35.234 93.559, 39.797 93.745 M 445.250 93.743 C 449.512 93.931, 456.488 93.931, 460.750 93.743 C 465.012 93.556, 461.525 93.402, 453 93.402 C 444.475 93.402, 440.988 93.556, 445.250 93.743 M 80.264 94.718 C 81.784 94.947, 84.034 94.941, 85.264 94.704 C 86.494 94.467, 85.250 94.279, 82.500 94.286 C 79.750 94.294, 78.744 94.488, 80.264 94.718 M 416.264 94.718 C 417.784 94.947, 420.034 94.941, 421.264 94.704 C 422.494 94.467, 421.250 94.279, 418.500 94.286 C 415.750 94.294, 414.744 94.488, 416.264 94.718 M 30.762 95.707 C 32.006 95.946, 33.806 95.937, 34.762 95.687 C 35.718 95.437, 34.700 95.241, 32.500 95.252 C 30.300 95.263, 29.518 95.468, 30.762 95.707 M 104.264 95.718 C 105.784 95.947, 108.034 95.941, 109.264 95.704 C 110.494 95.467, 109.250 95.279, 106.500 95.286 C 103.750 95.294, 102.744 95.488, 104.264 95.718 M 391.264 95.718 C 392.784 95.947, 395.034 95.941, 396.264 95.704 C 397.494 95.467, 396.250 95.279, 393.500 95.286 C 390.750 95.294, 389.744 95.488, 391.264 95.718 M 129.768 96.725 C 131.565 96.947, 134.265 96.943, 135.768 96.715 C 137.271 96.486, 135.800 96.304, 132.500 96.310 C 129.200 96.315, 127.971 96.502, 129.768 96.725 M 365.250 96.716 C 366.762 96.945, 369.238 96.945, 370.750 96.716 C 372.262 96.487, 371.025 96.300, 368 96.300 C 364.975 96.300, 363.738 96.487, 365.250 96.716 M 167.296 97.744 C 171.583 97.932, 178.333 97.931, 182.296 97.742 C 186.258 97.552, 182.750 97.399, 174.500 97.400 C 166.250 97.401, 163.008 97.556, 167.296 97.744 M 319.296 97.744 C 323.583 97.932, 330.333 97.931, 334.296 97.742 C 338.258 97.552, 334.750 97.399, 326.500 97.400 C 318.250 97.401, 315.008 97.556, 319.296 97.744 M 385.632 97.702 C 385.246 98.088, 378.758 98.465, 371.215 98.539 C 363.672 98.614, 344 98.932, 327.500 99.246 C 288.618 99.985, 211.625 99.996, 173.500 99.268 C 157 98.953, 136.863 98.620, 128.750 98.528 L 114 98.360 114 111.793 L 114 125.226 121.250 124.617 C 125.237 124.282, 135.925 123.812, 145 123.572 C 168.004 122.965, 334.912 123.033, 355 123.659 C 364.075 123.941, 376.788 124.318, 383.250 124.495 L 395 124.818 395 110.909 L 395 97 390.667 97 C 388.283 97, 386.018 97.316, 385.632 97.702 M 18.009 100.489 C 17.329 101.308, 16.405 101.751, 15.956 101.473 C 15.506 101.195, 14.902 101.350, 14.613 101.817 C 13.589 103.473, 17.017 102.638, 18.651 100.833 C 19.563 99.825, 20.070 99, 19.777 99 C 19.485 99, 18.689 99.670, 18.009 100.489 M 487.272 111 C 487.272 113.475, 487.467 114.487, 487.706 113.250 C 487.944 112.013, 487.944 109.987, 487.706 108.750 C 487.467 107.513, 487.272 108.525, 487.272 111 M 14.252 111.500 C 14.263 113.700, 14.468 114.482, 14.707 113.238 C 14.946 111.994, 14.937 110.194, 14.687 109.238 C 14.437 108.282, 14.241 109.300, 14.252 111.500 M 203.750 124.744 C 208.287 124.929, 215.713 124.929, 220.250 124.744 C 224.787 124.559, 221.075 124.407, 212 124.407 C 202.925 124.407, 199.213 124.559, 203.750 124.744 M 279.750 124.744 C 284.288 124.929, 291.712 124.929, 296.250 124.744 C 300.788 124.559, 297.075 124.407, 288 124.407 C 278.925 124.407, 275.212 124.559, 279.750 124.744 M 142.768 125.725 C 144.565 125.947, 147.265 125.943, 148.768 125.715 C 150.271 125.486, 148.800 125.304, 145.500 125.310 C 142.200 125.315, 140.971 125.502, 142.768 125.725 M 352.250 125.716 C 353.762 125.945, 356.238 125.945, 357.750 125.716 C 359.262 125.487, 358.025 125.300, 355 125.300 C 351.975 125.300, 350.738 125.487, 352.250 125.716 M 116.264 126.718 C 117.784 126.947, 120.034 126.941, 121.264 126.704 C 122.494 126.467, 121.250 126.279, 118.500 126.286 C 115.750 126.294, 114.744 126.488, 116.264 126.718 M 379.264 126.718 C 380.784 126.947, 383.034 126.941, 384.264 126.704 C 385.494 126.467, 384.250 126.279, 381.500 126.286 C 378.750 126.294, 377.744 126.488, 379.264 126.718 M 91.264 127.718 C 92.784 127.947, 95.034 127.941, 96.264 127.704 C 97.494 127.467, 96.250 127.279, 93.500 127.286 C 90.750 127.294, 89.744 127.488, 91.264 127.718 M 404.264 127.718 C 405.784 127.947, 408.034 127.941, 409.264 127.704 C 410.494 127.467, 409.250 127.279, 406.500 127.286 C 403.750 127.294, 402.744 127.488, 404.264 127.718 M 67.264 128.718 C 68.784 128.947, 71.034 128.941, 72.264 128.704 C 73.494 128.467, 72.250 128.279, 69.500 128.286 C 66.750 128.294, 65.744 128.488, 67.264 128.718 M 428.264 128.718 C 429.784 128.947, 432.034 128.941, 433.264 128.704 C 434.494 128.467, 433.250 128.279, 430.500 128.286 C 427.750 128.294, 426.744 128.488, 428.264 128.718 M 432.382 142.191 C 431.977 142.846, 432.176 143.559, 432.823 143.774 C 433.625 144.042, 434 147.483, 434 154.583 C 434 160.861, 434.397 165, 435 165 C 435.603 165, 436 160.861, 436 154.583 C 436 147.161, 436.359 144.035, 437.250 143.708 C 438.217 143.354, 438.184 142.939, 437.103 141.875 C 436.221 141.006, 435.966 140.960, 436.412 141.750 C 436.880 142.579, 436.404 143, 435 143 C 433.835 143, 433.160 142.550, 433.500 142 C 433.840 141.450, 433.893 141, 433.618 141 C 433.343 141, 432.787 141.536, 432.382 142.191 M 93.488 168.917 C 97.497 169.720, 98.235 172.884, 94.298 172.389 C 91.614 172.051, 91.602 172.069, 94 172.810 C 95.436 173.253, 96.629 174.468, 96.803 175.662 C 97.057 177.412, 96.660 177.687, 94.303 177.390 C 91.579 177.047, 91.570 177.060, 94 177.861 C 97.505 179.016, 98 178.477, 98 173.511 C 98 169.752, 98.316 169.088, 100.250 168.773 C 101.487 168.572, 99.800 168.387, 96.500 168.362 C 92.624 168.334, 91.558 168.530, 93.488 168.917 M 449.250 168.689 C 450.212 168.941, 451.788 168.941, 452.750 168.689 C 453.712 168.438, 452.925 168.232, 451 168.232 C 449.075 168.232, 448.288 168.438, 449.250 168.689 M 55.458 170.067 C 54.964 170.868, 55.101 171.055, 55.845 170.595 C 56.536 170.168, 57 170.532, 57 171.500 C 57 172.468, 56.536 172.832, 55.845 172.405 C 55.124 171.959, 54.963 172.131, 55.415 172.862 C 55.813 173.506, 56.519 173.797, 56.984 173.510 C 57.449 173.223, 58.088 173.553, 58.405 174.244 C 58.722 174.935, 58.710 174.375, 58.378 173 C 57.584 169.709, 56.409 168.529, 55.458 170.067 M 449.015 171.250 C 449.004 172.524, 449.748 172.968, 451.750 172.884 C 453.858 172.795, 454.033 172.651, 452.500 172.268 C 451.400 171.993, 450.169 171.258, 449.765 170.634 C 449.299 169.914, 449.025 170.139, 449.015 171.250 M 69 174 C 69 175.867, 69.267 176.133, 70.200 175.200 C 71.133 174.267, 71.133 173.733, 70.200 172.800 C 69.267 171.867, 69 172.133, 69 174 M 84.393 174.471 C 84.671 176.367, 85.666 177.334, 87.635 177.623 C 88.814 177.796, 88.636 177.241, 86.931 175.427 C 84.261 172.585, 84.108 172.527, 84.393 174.471 M 449.116 175.750 C 449.021 177.596, 449.494 177.976, 451.750 177.864 C 454.014 177.752, 454.113 177.652, 452.311 177.302 C 451.108 177.068, 449.922 176.117, 449.677 175.189 C 449.362 173.992, 449.198 174.156, 449.116 175.750"
stroke="none" fill="#dddddd" fill-rule="evenodd"
/>
    <!-- fill for the contact points of both skis -->
    <path d="M 272.286 16.500 C 272.294 19.250, 272.488 20.256, 272.718 18.736 C 272.947 17.216, 272.941 14.966, 272.704 13.736 C 272.467 12.506, 272.279 13.750, 272.286 16.500 M 457.919 70.030 C 454.300 70.998, 447.100 72.519, 441.919 73.410 C 433.587 74.844, 427.191 75.525, 402.250 77.631 C 398.813 77.922, 396 78.573, 396 79.080 C 396 83.259, 466.308 73.576, 467.768 69.195 C 468.279 67.662, 466.082 67.848, 457.919 70.030 M 41.244 70.250 C 41.734 71.739, 57.171 75.338, 72.500 77.537 C 86.609 79.562, 113 80.692, 113 79.272 C 113 78.654, 107.892 77.961, 100.250 77.543 C 83.391 76.620, 66.990 74.487, 53.507 71.465 C 40.767 68.608, 40.702 68.602, 41.244 70.250 M 238.762 70.707 C 240.006 70.946, 241.806 70.937, 242.762 70.687 C 243.718 70.437, 242.700 70.241, 240.500 70.252 C 238.300 70.263, 237.518 70.468, 238.762 70.707 M 257.762 70.707 C 259.006 70.946, 260.806 70.937, 261.762 70.687 C 262.718 70.437, 261.700 70.241, 259.500 70.252 C 257.300 70.263, 256.518 70.468, 257.762 70.707 M 41 110.744 C 41 125.491, 41.147 126.805, 42.850 127.250 C 44.767 127.752, 84.766 126.540, 102.778 125.435 L 113.055 124.804 112.778 111.152 L 112.500 97.500 100 96.871 C 93.125 96.525, 77.037 95.900, 64.250 95.481 L 41 94.721 41 110.744 M 419.500 96.051 C 411.800 96.439, 403.363 96.811, 400.750 96.878 L 396 97 396 111.031 C 396 121.381, 396.328 125.166, 397.250 125.455 C 399.279 126.092, 453.892 127.565, 461.250 127.181 L 468 126.829 468 110.915 L 468 95 450.750 95.173 C 441.262 95.269, 427.200 95.664, 419.500 96.051 M 155.250 97.689 C 156.213 97.941, 157.787 97.941, 158.750 97.689 C 159.713 97.438, 158.925 97.232, 157 97.232 C 155.075 97.232, 154.287 97.438, 155.250 97.689 M 244.789 98.741 C 248.248 98.937, 253.648 98.936, 256.789 98.738 C 259.930 98.540, 257.100 98.380, 250.500 98.382 C 243.900 98.384, 241.330 98.546, 244.789 98.741 M 200.250 99.689 C 201.213 99.941, 202.787 99.941, 203.750 99.689 C 204.713 99.438, 203.925 99.232, 202 99.232 C 200.075 99.232, 199.287 99.438, 200.250 99.689 M 245.250 122.735 C 247.863 122.941, 252.137 122.941, 254.750 122.735 C 257.363 122.529, 255.225 122.360, 250 122.360 C 244.775 122.360, 242.637 122.529, 245.250 122.735 M 156.762 123.707 C 158.006 123.946, 159.806 123.937, 160.762 123.687 C 161.718 123.437, 160.700 123.241, 158.500 123.252 C 156.300 123.263, 155.518 123.468, 156.762 123.707 M 339.762 123.707 C 341.006 123.946, 342.806 123.937, 343.762 123.687 C 344.718 123.437, 343.700 123.241, 341.500 123.252 C 339.300 123.263, 338.518 123.468, 339.762 123.707"
stroke="none" fill="#60A5FA" fill-rule="evenodd"
/> <!-- fill for the contact points of both skis -->

    <!-- main outline of the Ski -->
    <path d="M 224.575 12.918 C 221.120 16.735, 224.989 22.600, 230.084 21.268 C 232.926 20.525, 232.408 19.199, 229.494 19.756 C 226.559 20.317, 224 18.527, 224 15.913 C 224 13.568, 227.445 11.689, 230.163 12.552 C 231.562 12.996, 232.025 12.849, 231.566 12.107 C 230.482 10.354, 226.475 10.818, 224.575 12.918 M 257.667 11.667 C 257.300 12.033, 257 14.313, 257 16.733 C 257 20.943, 257.119 21.119, 259.750 20.816 C 262.159 20.539, 262.504 20.066, 262.531 17 C 262.574 12.120, 260.017 9.316, 257.667 11.667 M 265 16 L 265 21 268.250 20.850 C 271.360 20.707, 271.379 20.682, 268.691 20.278 C 265.183 19.751, 265.388 16.900, 269.005 15.894 C 271.481 15.205, 271.479 15.199, 268.667 15.100 C 265.260 14.980, 265.527 12.868, 269.074 11.877 C 271.249 11.269, 271.164 11.189, 268.250 11.100 C 265.003 11, 265 11.005, 265 16 M 273.100 16.250 C 273.173 20.122, 273.386 20.844, 273.911 19 L 274.623 16.500 275.846 18.750 C 276.520 19.988, 277.601 21, 278.249 21 C 278.952 21, 278.744 20.316, 277.735 19.306 C 276.173 17.744, 276.167 17.473, 277.658 15.825 C 278.976 14.369, 279.043 13.756, 278.016 12.519 C 277.322 11.683, 275.910 11, 274.878 11 C 273.267 11, 273.014 11.745, 273.100 16.250 M 236.011 15.978 C 234.828 18.297, 234.106 20.440, 234.407 20.740 C 234.707 21.040, 235.237 20.547, 235.583 19.643 C 236.413 17.481, 239.915 17.542, 241.672 19.750 C 242.717 21.065, 242.669 20.505, 241.480 17.500 C 239.116 11.532, 238.383 11.328, 236.011 15.978 M 245 14.918 C 245 16.523, 244.727 18.548, 244.393 19.418 C 244.059 20.288, 244.284 21, 244.893 21 C 245.502 21, 246.029 19.538, 246.064 17.750 L 246.128 14.500 247.745 17.750 C 248.635 19.538, 249.687 21, 250.084 21 C 250.480 21, 251.382 19.538, 252.088 17.750 L 253.372 14.500 253.749 17.750 C 254.296 22.459, 255.625 21.753, 255.171 16.994 C 254.685 11.903, 253.571 11.208, 251.995 15.013 C 250.435 18.778, 249.564 18.775, 248 15 C 246.420 11.187, 245 11.148, 245 14.918 M 258.639 12.694 C 257.513 13.820, 257.954 15, 259.500 15 C 260.325 15, 261 14.577, 261 14.059 C 261 12.798, 259.438 11.895, 258.639 12.694 M 274 14 C 274 16.171, 274.738 16.452, 276.878 15.096 C 278.492 14.075, 277.529 12, 275.441 12 C 274.648 12, 274 12.900, 274 14 M 258.598 16.736 C 257.281 18.052, 258.117 20, 260 20 C 261.100 20, 262 19.373, 262 18.607 C 262 17.099, 259.571 15.762, 258.598 16.736 M 13.910 58.608 C 12.269 60.585, 13.875 61.998, 21.816 65.562 C 40.485 73.942, 64.929 79.082, 95.500 81.058 C 114.340 82.276, 127.754 81.826, 157.500 78.979 C 204.392 74.491, 243.774 73.237, 284.500 74.935 C 312.463 76.101, 316.971 76.435, 348 79.629 C 370.234 81.917, 406.567 81.903, 426 79.598 C 457.130 75.906, 486.500 67.602, 486.500 62.492 C 486.500 59.832, 484.752 60.069, 472.266 64.418 C 459.408 68.896, 441.096 72.632, 422.165 74.640 C 404.173 76.549, 360.539 76.007, 340 73.620 C 289.709 67.776, 215.775 67.614, 165 73.236 C 141.195 75.872, 90.563 76.398, 75.500 74.166 C 54.797 71.098, 28.823 63.939, 20.193 58.922 C 16.175 56.587, 15.611 56.559, 13.910 58.608 M 14.570 58.887 C 13.480 60.650, 18.625 63.414, 31.323 67.887 C 38.784 70.515, 40.096 70.740, 39.823 69.339 C 39.621 68.304, 37.066 66.862, 33 65.489 C 29.425 64.282, 24.152 62.103, 21.283 60.647 C 15.437 57.680, 15.332 57.653, 14.570 58.887 M 477 64.191 C 468.482 67.577, 468.292 67.699, 469.567 68.947 C 470.617 69.974, 486 64.394, 486 62.985 C 486 61.089, 484.190 61.332, 477 64.191 M 457.919 70.030 C 454.300 70.998, 447.100 72.519, 441.919 73.410 C 433.587 74.844, 427.191 75.525, 402.250 77.631 C 398.813 77.922, 396 78.573, 396 79.080 C 396 83.259, 466.308 73.576, 467.768 69.195 C 468.279 67.662, 466.082 67.848, 457.919 70.030 M 41.244 70.250 C 41.734 71.739, 57.171 75.338, 72.500 77.537 C 86.609 79.562, 113 80.692, 113 79.272 C 113 78.654, 107.892 77.961, 100.250 77.543 C 83.391 76.620, 66.990 74.487, 53.507 71.465 C 40.767 68.608, 40.702 68.602, 41.244 70.250 M 226 70.618 C 208.430 71.079, 177.935 73.013, 164 74.551 C 157.125 75.310, 143.063 76.475, 132.750 77.141 C 109.751 78.627, 107.090 80.573, 129.250 79.702 C 137.637 79.372, 153.500 78.185, 164.500 77.064 C 218.275 71.584, 284.396 71.606, 336.500 77.121 C 358.523 79.452, 395 80.811, 395 79.301 C 395 78.714, 387.999 78.037, 377.774 77.635 C 368.300 77.263, 351.988 76.086, 341.524 75.021 C 307.635 71.570, 259.574 69.738, 226 70.618 M 24.500 95.222 C 16.264 98.141, 12.501 103.968, 13.223 112.679 C 13.755 119.095, 16.041 122.586, 21.828 125.819 C 28.144 129.348, 40.487 129.525, 100 126.939 C 145.986 124.941, 164.597 124.657, 250 124.650 C 335.613 124.643, 353.962 124.921, 400.500 126.932 C 470.488 129.956, 476.394 129.612, 483.469 122.090 C 486.036 119.361, 486.488 118.023, 486.806 112.216 C 487.120 106.461, 486.838 105.007, 484.833 102.054 C 480.206 95.240, 477.723 94.539, 456.922 94.174 C 446.705 93.995, 421.505 94.594, 400.922 95.505 C 321.669 99.012, 178.797 99.040, 101 95.563 C 61.586 93.801, 28.918 93.655, 24.500 95.222 M 24.834 96.575 C 14.003 99.909, 10.510 112.816, 18.099 121.460 C 21.572 125.415, 25.045 126.698, 33.750 127.239 L 40 127.628 40 111.314 L 40 95 34.750 95.070 C 31.862 95.108, 27.400 95.786, 24.834 96.575 M 41 110.744 C 41 125.491, 41.147 126.805, 42.850 127.250 C 44.767 127.752, 84.766 126.540, 102.778 125.435 L 113.055 124.804 112.778 111.152 L 112.500 97.500 100 96.871 C 93.125 96.525, 77.037 95.900, 64.250 95.481 L 41 94.721 41 110.744 M 419.500 96.051 C 411.800 96.439, 403.363 96.811, 400.750 96.878 L 396 97 396 111.031 C 396 121.381, 396.328 125.166, 397.250 125.455 C 399.279 126.092, 453.892 127.565, 461.250 127.181 L 468 126.829 468 110.915 L 468 95 450.750 95.173 C 441.262 95.269, 427.200 95.664, 419.500 96.051 M 469.898 95.432 C 469.679 95.650, 469.635 102.841, 469.799 111.414 C 470.136 128.972, 469.911 128.586, 477.729 125.036 C 483.910 122.230, 486.195 118.032, 485.759 110.282 C 485.386 103.648, 483.302 100.227, 478 97.545 C 475.073 96.065, 470.470 94.864, 469.898 95.432 M 114 110.881 L 114 124.977 137.250 124.238 C 168.539 123.245, 331.464 123.298, 366.750 124.313 L 395 125.126 395 110.946 L 395 96.767 388.250 97.297 C 384.537 97.588, 352.123 98.380, 316.217 99.057 C 265.897 100.007, 235.606 100.028, 184.062 99.150 C 147.282 98.523, 116.472 97.735, 115.595 97.398 C 114.181 96.856, 114 98.390, 114 110.881 M 75.952 142.051 C 75.010 142.647, 74.927 142.975, 75.716 142.985 C 76.577 142.996, 77.017 146.145, 77.220 153.750 L 77.508 164.500 78.004 153.152 C 78.277 146.910, 78.254 141.652, 77.952 141.468 C 77.651 141.283, 76.751 141.545, 75.952 142.051 M 433.500 142 C 433.160 142.550, 433.835 143, 435 143 C 436.165 143, 436.840 142.550, 436.500 142 C 436.160 141.450, 435.485 141, 435 141 C 434.515 141, 433.840 141.450, 433.500 142 M 51.150 174.250 C 51.242 177.475, 51.466 178.376, 51.732 176.587 L 52.164 173.673 54.546 176.587 C 55.856 178.189, 56.944 178.993, 56.964 178.372 C 56.984 177.752, 56.320 176.681, 55.489 175.991 C 54.148 174.878, 54.166 174.599, 55.651 173.513 C 57.980 171.810, 56.659 169, 53.531 169 C 51.125 169, 51.007 169.260, 51.150 174.250 M 60.200 170.200 C 57.518 172.882, 59.908 179, 63.637 179 C 66.707 179, 69 176.932, 69 174.165 C 69 170.703, 67.351 169, 64 169 C 62.570 169, 60.860 169.540, 60.200 170.200 M 72.200 170.200 C 70.499 171.901, 70.713 175.571, 72.626 177.483 C 74.490 179.347, 79.133 179.146, 79.782 177.174 C 80.143 176.074, 79.857 176.072, 78.105 177.166 C 76.530 178.150, 75.549 178.206, 74.247 177.386 C 70.195 174.834, 72.341 169.529, 77.140 170.234 C 78.655 170.456, 79.667 170.270, 79.388 169.819 C 78.618 168.573, 73.558 168.842, 72.200 170.200 M 82 173.500 C 82 176.123, 82.462 178, 83.107 178 C 83.716 178, 83.955 177.325, 83.638 176.500 C 82.825 174.381, 83.956 174.637, 86.936 177.246 C 89.351 179.362, 89.341 179.317, 86.763 176.455 L 84.026 173.418 86.263 171.095 L 88.500 168.773 86.250 169.921 C 84.772 170.676, 84 170.715, 84 170.035 C 84 169.466, 83.550 169, 83 169 C 82.450 169, 82 171.025, 82 173.500 M 90.544 170.250 C 90.327 170.938, 90.229 173.075, 90.325 175 C 90.482 178.144, 90.805 178.516, 93.500 178.659 C 95.515 178.765, 95.761 178.660, 94.250 178.339 C 92.894 178.051, 92 177.121, 92 176 C 92 174.865, 92.878 173.970, 94.250 173.706 L 96.500 173.272 94.250 173.136 C 93.013 173.061, 92 172.356, 92 171.570 C 92 170.783, 93.013 169.944, 94.250 169.706 C 96.158 169.338, 96.077 169.252, 93.719 169.136 C 92.189 169.061, 90.760 169.563, 90.544 170.250 M 98.150 174.250 C 98.232 177.137, 98.486 178.271, 98.714 176.769 L 99.129 174.039 101.679 176.769 L 104.228 179.500 102.711 176.934 C 101.347 174.626, 101.354 174.267, 102.776 173.370 C 105.079 171.917, 103.581 169, 100.531 169 C 98.125 169, 98.007 169.260, 98.150 174.250 M 408 173.500 C 408 175.975, 408.450 178, 409 178 C 409.550 178, 410.015 177.213, 410.033 176.250 C 410.062 174.754, 410.339 174.826, 411.944 176.750 C 412.976 177.988, 414.156 179, 414.565 179 C 414.975 179, 414.489 178.093, 413.486 176.984 C 411.720 175.033, 411.720 174.925, 413.493 173.629 C 416.167 171.674, 414.745 169, 411.031 169 C 408.105 169, 408 169.156, 408 173.500 M 417.447 171.441 C 415.891 173.816, 415.888 174.180, 417.408 176.500 C 420.714 181.546, 428.397 177.894, 426.414 172.220 C 425.045 168.301, 419.802 167.846, 417.447 171.441 M 429.496 171.004 C 427.990 172.668, 427.878 173.436, 428.833 175.532 C 429.465 176.920, 430.663 178.317, 431.494 178.636 C 433.559 179.428, 438 178.215, 438 176.859 C 438 176.113, 437.518 176.155, 436.513 176.989 C 435.644 177.710, 433.956 177.955, 432.452 177.577 C 430.260 177.027, 429.924 176.454, 430.189 173.716 C 430.480 170.702, 430.734 170.507, 434.224 170.612 C 436.272 170.673, 437.707 170.336, 437.415 169.862 C 436.421 168.254, 431.319 168.990, 429.496 171.004 M 440.206 174 C 440.243 177.025, 440.473 178.444, 440.718 177.153 L 441.165 174.806 443.582 177.077 C 444.912 178.327, 446 178.890, 446 178.329 C 446 177.769, 445.093 176.489, 443.984 175.486 L 441.969 173.662 444.159 171.331 C 445.363 170.049, 445.875 169, 445.297 169 C 444.718 169, 443.648 169.719, 442.920 170.597 C 441.716 172.047, 441.527 172.024, 440.867 170.347 C 440.438 169.255, 440.168 170.748, 440.206 174 M 448 174 L 448 179 451.250 178.850 C 454.275 178.711, 454.310 178.671, 451.750 178.284 C 449.881 178.001, 449 177.269, 449 176 C 449 174.731, 449.881 173.999, 451.750 173.716 L 454.500 173.300 451.750 173.150 C 450.099 173.060, 449 172.427, 449 171.566 C 449 170.770, 450.223 169.948, 451.750 169.716 C 454.310 169.329, 454.275 169.289, 451.250 169.150 L 448 169 448 174 M 455 174.059 C 455 177.392, 455.364 178.893, 456.068 178.458 C 456.656 178.095, 456.895 177.168, 456.600 176.399 C 455.753 174.193, 457.806 174.769, 459.046 177.086 C 459.660 178.233, 460.415 178.919, 460.724 178.610 C 461.032 178.301, 460.704 177.348, 459.994 176.493 C 458.919 175.198, 459.006 174.716, 460.514 173.613 C 463.168 171.673, 461.730 169, 458.031 169 C 455.056 169, 455 169.093, 455 174.059 M 52 171.500 C 52 172.333, 52.889 173, 54 173 C 55.111 173, 56 172.333, 56 171.500 C 56 170.667, 55.111 170, 54 170 C 52.889 170, 52 170.667, 52 171.500 M 61.082 171.401 C 59.489 173.320, 60.007 175.975, 62.250 177.388 C 64.815 179.003, 67.500 176.959, 67.500 173.391 C 67.500 171.026, 67.030 170.445, 64.914 170.199 C 63.492 170.034, 61.768 170.575, 61.082 171.401 M 99 171.500 C 99 172.333, 99.889 173, 101 173 C 102.111 173, 103 172.333, 103 171.500 C 103 170.667, 102.111 170, 101 170 C 99.889 170, 99 170.667, 99 171.500 M 410 171.500 C 410 172.530, 410.655 173.020, 411.750 172.810 C 413.858 172.404, 413.725 170.629, 411.553 170.177 C 410.647 169.988, 410 170.539, 410 171.500 M 418.667 170.667 C 417.580 171.753, 417.906 175.506, 419.200 176.800 C 422.433 180.033, 427.944 175.047, 425.025 171.530 C 423.735 169.975, 419.881 169.452, 418.667 170.667 M 457 171.500 C 457 172.530, 457.655 173.020, 458.750 172.810 C 460.858 172.404, 460.725 170.629, 458.553 170.177 C 457.647 169.988, 457 170.539, 457 171.500"
stroke="none" fill="#3f413d" fill-rule="evenodd"
/> <!-- This path defines the main outline of the SVG -->

    <!-- random stuff -->
    <path d="M 246.750 68.723 C 248.537 68.945, 251.463 68.945, 253.250 68.723 C 255.037 68.502, 253.575 68.320, 250 68.320 C 246.425 68.320, 244.963 68.502, 246.750 68.723 M 238.308 71.748 C 245.353 71.920, 256.603 71.919, 263.308 71.747 C 270.014 71.574, 264.250 71.433, 250.500 71.434 C 236.750 71.434, 231.264 71.576, 238.308 71.748 M 191.500 73.014 C 187.650 73.373, 192.825 73.457, 203 73.200 C 213.175 72.943, 221.688 72.568, 221.917 72.366 C 222.570 71.792, 199.280 72.287, 191.500 73.014 M 278.083 72.369 C 278.313 72.572, 287.275 72.968, 298 73.249 C 310.670 73.581, 314.347 73.489, 308.500 72.986 C 299.065 72.174, 277.366 71.734, 278.083 72.369 M 160 75.584 C 145.551 77.245, 116.912 79.064, 115.821 78.389 C 115.369 78.110, 115 78.368, 115 78.961 C 115 80.409, 136.837 79.005, 176 75.039 L 183.500 74.280 177.500 74.271 C 174.200 74.266, 166.325 74.857, 160 75.584 M 320.768 74.725 C 322.565 74.947, 325.265 74.943, 326.768 74.715 C 328.271 74.486, 326.800 74.304, 323.500 74.310 C 320.200 74.315, 318.971 74.502, 320.768 74.725 M 334.500 76.046 C 337.250 76.474, 341.525 76.801, 344 76.772 L 348.500 76.718 343 75.958 C 339.975 75.540, 335.700 75.213, 333.500 75.233 C 329.637 75.266, 329.671 75.294, 334.500 76.046 M 356.497 78.003 C 370.628 79.407, 394 80.255, 394 79.363 C 394 78.888, 390.512 78.500, 386.250 78.500 C 381.988 78.500, 371.750 78.209, 363.500 77.854 C 354.085 77.448, 351.478 77.504, 356.497 78.003 M 191.250 97.716 C 192.762 97.945, 195.238 97.945, 196.750 97.716 C 198.262 97.487, 197.025 97.300, 194 97.300 C 190.975 97.300, 189.738 97.487, 191.250 97.716 M 303.768 97.725 C 305.565 97.947, 308.265 97.943, 309.768 97.715 C 311.271 97.486, 309.800 97.304, 306.500 97.310 C 303.200 97.315, 301.971 97.502, 303.768 97.725 M 209.789 100.741 C 213.248 100.937, 218.648 100.936, 221.789 100.738 C 224.930 100.540, 222.100 100.380, 215.500 100.382 C 208.900 100.384, 206.330 100.546, 209.789 100.741 M 279.250 100.739 C 282.413 100.937, 287.587 100.937, 290.750 100.739 C 293.913 100.541, 291.325 100.378, 285 100.378 C 278.675 100.378, 276.087 100.541, 279.250 100.739 M 166.280 122.736 C 168.909 122.943, 172.959 122.940, 175.280 122.731 C 177.601 122.521, 175.450 122.352, 170.500 122.355 C 165.550 122.358, 163.651 122.530, 166.280 122.736 M 323.750 122.723 C 325.538 122.945, 328.462 122.945, 330.250 122.723 C 332.038 122.502, 330.575 122.320, 327 122.320 C 323.425 122.320, 321.962 122.502, 323.750 122.723 M 130.762 123.707 C 132.006 123.946, 133.806 123.937, 134.762 123.687 C 135.718 123.437, 134.700 123.241, 132.500 123.252 C 130.300 123.263, 129.518 123.468, 130.762 123.707 M 365.762 123.707 C 367.006 123.946, 368.806 123.937, 369.762 123.687 C 370.718 123.437, 369.700 123.241, 367.500 123.252 C 365.300 123.263, 364.518 123.468, 365.762 123.707 M 230.728 124.722 C 232.503 124.943, 235.653 124.946, 237.728 124.730 C 239.802 124.513, 238.350 124.333, 234.500 124.328 C 230.650 124.324, 228.952 124.501, 230.728 124.722 M 261.728 124.722 C 263.503 124.943, 266.653 124.946, 268.728 124.730 C 270.802 124.513, 269.350 124.333, 265.500 124.328 C 261.650 124.324, 259.952 124.501, 261.728 124.722 M 78.378 154 C 78.378 160.325, 78.541 162.912, 78.739 159.750 C 78.937 156.588, 78.937 151.412, 78.739 148.250 C 78.541 145.088, 78.378 147.675, 78.378 154 M 446.758 172.768 C 447.429 179.015, 448 179.456, 448 173.726 C 448 171.191, 447.606 168.875, 447.125 168.577 C 446.644 168.280, 446.478 170.166, 446.758 172.768"
stroke="none" fill="#f5f7f2" fill-rule="evenodd"
/>
</svg>